<?xml version="1.0" encoding="UTF-8"?>
<svg id="Layer_1" data-name="Layer 1" xmlns="http://www.w3.org/2000/svg" viewBox="0 0 256 256">
  <defs>
    <style>
      .cls-1 {
        fill: #fff;
      }

      .cls-2 {
        fill: #0b4b7f;
      }
    </style>
  </defs>
  <rect class="cls-2" x="3.01" y="3.01" width="249.98" height="249.98" rx="25.92" ry="25.92"/>
  <path class="cls-1" d="M55.56,206.75l.37.67s-20.5-55.99,33.82-119.94c54.32-63.96,124.04-34.88,124.04-34.88,7.91,6.66,13.11,16.31,18.91,28.25,26.22,57.66.72,125.66-56.96,151.87-17.34,7.88-36.37,11.32-55.37,10.01-12.08-.81-23.95-3.51-35.19-8-7.24-3.05-20.32-7.48-27.77-23.46l-1.83-4.52ZM16.27,99.85C31.66,38.41,93.96,1.07,155.42,16.46c0,0,0,0,0,0,16.07,3.76,31.09,11.06,43.96,21.38C147.45,13.41,48.32,31.74,14.19,140.16c-1.5,4.73-1.28-12.92-.95-19.79.43-6.84,1.45-13.62,3.06-20.28"/>
</svg>