<?xml version="1.0" encoding="UTF-8"?>
<svg id="Layer_1" data-name="Layer 1" xmlns="http://www.w3.org/2000/svg" viewBox="0 0 256 256">
  <defs>
    <style>
      .cls-1 {
        fill: #fff;
      }

      .cls-2 {
        fill: #165c2e;
      }
    </style>
  </defs>
  <rect class="cls-2" x="3.01" y="3.01" width="249.98" height="249.98" rx="25.92" ry="25.92"/>
  <g>
    <path class="cls-1" d="M243,141.44c-.53,1.29-.28,3.36-.73,4.73-1.45-1.71-2.81-3.5-4.19-5.28.23-.93.08-2.23.36-3.1,1.54,1.19,3,2.47,4.55,3.64Z"/>
    <path class="cls-1" d="M236.99,138.71c.03,1.98-.58,4.42-1.27,5.83-2.42,4.88-9.8,9.04-16.75,5.46-3.65-1.88-7.29-6.67-6.37-13.11.41-2.91,2.54-6.05,4.55-7.65,1.38-1.1,3.54-2.07,5.83-2.37,7.69-1.01,13.91,4.47,14.02,11.83ZM229.89,144.72c5.53-4.86,1.1-14.63-6.74-13.11-3.47.67-6.64,3.96-6.01,8.56.68,4.98,7.88,8.82,12.74,4.55Z"/>
    <path class="cls-1" d="M236.99,117.05c-.2,1.56-.69,2.83-.91,4.37-3.58-1.88-7.04-3.88-10.56-5.83-3.9,2.65-6.58,6.53-10.38,9.29-.6-1.52-1.55-2.7-2.19-4.19,2.96-2.17,5.45-4.78,8.19-7.28.88-.8,2.1-1.33,2.55-2.55-3.71-.07-7.6,1.26-11.65,1.46-.04-1.48-.49-2.55-.73-3.82,1.7-.92,3.7-.77,5.64-1.09,5.52-.92,11.86-2.12,17.48-2.91.71,1.11.87,2.77,1.27,4.19-3.36.58-6.71,1.18-10.19,1.64.37,1.08,1.61,1.5,2.55,2,2.76,1.48,6.03,3.04,8.92,4.73Z"/>
    <path class="cls-1" d="M232.81,159.83c-.15,1.48-.59,2.69-.73,4.19-6.46-1.67-12.26-4.01-18.57-5.83-1.24,2.28-1.92,5.12-2.73,7.83-1.14-.09-2.6-1.38-3.64-2.19.99-3.86,2.4-7.31,3.46-11.1,7.51,2.26,14.72,4.82,22.21,7.1Z"/>
    <path class="cls-1" d="M223.16,84.28c5.82-.33,9.6,6.81,6.74,12.74-1.47-.35-2.61-1.03-4.01-1.46,1.06-2.03.95-5.52-.91-6.55-5.41-1.17-3.14,3.89-3.82,8.19-.68,4.31-6.89,7.22-11.11,4.37-3.2-2.17-4.74-8.27-2-12.38,1.19.69,2.7,1.06,3.82,1.82-2.22,2.49-.94,7.52,2.55,7.1,1.04-.13,1.15-.66,2-1.27.84-2.96-.13-5.87.55-8.19.68-2.34,3.45-4.22,6.19-4.37Z"/>
    <path class="cls-1" d="M226.07,66.8c-2.05.05-4.64-.94-6.92-1.27-.34-1.11-1.31-1.6-1.64-2.73h5.64c1,1.3,1.8,2.81,2.91,4.01Z"/>
    <path class="cls-1" d="M225.89,177.67c-.35,1.53-.99,2.77-1.46,4.19-7.06-3.56-14.04-7.2-21.12-10.74.24-1.58,1.13-2.51,1.45-4.01,7.19,3.38,13.98,7.14,21.12,10.56Z"/>
    <path class="cls-1" d="M217.51,65.71c.61.39-.23,1.01-.36,1.27-3.56,7.11-8.28,14.57-11.83,21.85-1.36-.12-2.14-2.34-3.46-3.1,1.12-1.85,2.22-3.73,3.28-5.64-1.52-2.73-3.23-5.27-5.1-7.65-2.23.2-4.11.75-6.37.91-.59-1.41-1.46-2.55-1.82-4.19,8.78-.92,17.16-2.25,25.67-3.46ZM207.13,75.9c1.52-1.52,2.64-3.42,3.64-5.46-2.12.37-4.05.93-6.19,1.27.64,1.6,1.9,2.59,2.55,4.19Z"/>
    <path class="cls-1" d="M199.31,189.14c2.66-.46,4.85,1.21,4.55,4.19-.51,5.09-9.05,4.24-7.65-1.64.2-.82,1.21-2.22,3.1-2.55Z"/>
    <path class="cls-1" d="M204.95,49.5c-.98,1.81-2.53,3.2-3.82,4.73-3.75,4.42-7.81,8.9-11.65,13.47-1.33-.68-2.29-1.72-3.46-2.55,1.95-2.72,4.45-4.9,6.37-7.65-.69-1.43-2.23-2.21-3.46-3.28-1.16-1.01-2.25-2.13-3.46-3.1-2.63,2.1-4.21,5.26-6.92,7.28-.99-.83-1.9-1.74-3.09-2.37,4.79-6.19,10.23-11.73,15.11-17.84,1.58.42,2.43,1.57,3.82,2.18-1.78,2.65-4.18,4.68-6.01,7.28.64,1.56,2.3,2.29,3.46,3.28,1.21,1.04,2.11,2.27,3.46,3.1,2.33-1.98,4.07-4.55,6.19-6.74,1.19.7,2.1,1.67,3.46,2.19Z"/>
    <path class="cls-1" d="M184.74,205.71c4.55.4,8.16,6.74,4.92,11.29-1.94,2.72-5.88,4.59-10.38,3.46,0-1.57.59-2.57.55-4.19,2.78.84,7.17,0,6.55-3.82-.13-.81-1.15-1.84-1.82-2-2.59-.62-5.51,1.69-8.74,1.27-3.07-.39-6.34-3.97-5.46-8.37.71-3.59,5.63-7.11,10.74-6.01-.18,1.34-.11,2.92-.36,4.19-2.38-.44-5.88.3-6.01,2.91-.04.88.71,2.45,1.82,2.73,2.59.65,4.99-1.74,8.19-1.46Z"/>
    <path class="cls-1" d="M178.92,34.39c.23,3.6-2.13,7.57-7.46,7.46.36,3.89,1.13,7.36,1.64,11.11-1.6-.28-3.1-.67-4.73-.91-.72-4.74-1.11-9.81-2.18-14.2-2.06,3.03-3.21,6.99-5.1,10.2-1.24-.52-2.55-.97-3.82-1.46,2.85-7.19,6.45-13.67,9.47-20.75.07-.16.21-.29.18-.55,1.4.38,3.41,1.28,5.46,2.18,2.91,1.29,6.33,3.23,6.55,6.92ZM172.91,37.13c.5-.51,1.09-1.82.91-2.91-.32-1.95-2.81-2.35-4.55-3.28-.77,1.96-1.8,3.66-2.55,5.64,1.86,1.01,4.61,2.17,6.19.55Z"/>
    <path class="cls-1" d="M195.3,169.12c-10.58,7.45-24.28,15.57-40.05,18.39-20.44,3.66-39.49-4.03-50.25-13.11-7.43,5.07-14.86,10.15-21.12,16.38-3.43-4.09-7.33-8.69-10.2-12.74,6.14.93,10.97-.48,15.29-2.18,4.23-1.67,8.32-3.57,11.29-6.55-3.04-4.02-6.11-8.08-8.74-12.56-7.47-12.72-12.22-31.67-10.74-51.52,1.95-26.06,13.11-44.63,25.67-59.71.16-.03.17.07.18.18h.36c5.62,7.29,10.92,15.79,14.75,25.67,3.74,9.65,6.54,21.09,6.74,33.68.41,26.66-6.5,47.45-19.3,61.53,3.19-1.39,6.01-3.63,9.29-5.28,9.11-4.59,20.89-9.13,34.95-8.01,17.38,1.39,30.67,8.54,41.87,15.84ZM185.29,169.66c-.89-1-2.28-1.73-3.64-2.37-9.6-4.51-22.22-7.93-36.23-7.28-14.46.67-25.88,5.61-34.77,11.47,4.1,3.79,9.76,6.44,16.02,8.19,6.44,1.8,14.02,2.78,22.03,2,14.62-1.43,26.29-6.76,36.59-12.02ZM104.28,165.66c10.41-12.58,17.92-31.16,17.84-54.25-.07-22.83-6.01-43.06-15.66-56.62-.01-.11-.03-.21-.18-.18-10.37,12.6-17.89,33.14-18.93,54.98-.99,20.81,5.39,38.23,13.11,50.61,1.2,1.93,2.22,3.94,3.82,5.46Z"/>
    <path class="cls-1" d="M159.07,208.07c6.59-.46,13.1,5.63,12.2,13.66-.79,7.04-6.95,9.22-13.11,11.29-2.72-7.36-5.87-14.28-8.56-21.66,3.62-.78,5.89-3.03,9.47-3.28ZM164.35,225.91c3.63-2.69,2.85-9.52-.91-12.2-2.38-1.7-4.97-1.36-8.01,0,1.49,4.82,3.69,8.94,5.28,13.66,1.47-.52,2.64-.72,3.64-1.46Z"/>
    <path class="cls-1" d="M155.07,44.41c-.85.43-3.37-.28-4.55,0-.71-1.9-1.26-3.96-1.64-6.19-2.58-1.06-6.13-1.15-8.92-2-1.64,1.51-2.53,3.78-4.19,5.28-1.33-.49-2.7-.93-4-1.46,5.07-7.19,10.49-14.03,15.84-20.94,2.55,8.38,4.84,17,7.46,25.31ZM147.24,33.67c.07-1.79-.85-4.11-1.09-6.19h-.55c-.77,2.02-2.27,3.31-3.1,5.28,1.57.31,3.13.63,4.73.91Z"/>
    <path class="cls-1" d="M146.87,236.11c-.74-.07-1.46-.67-2-1.09-4.21-3.3-8.87-7.34-13.47-10.56-.11,4.24,1.12,8.71,1.27,13.29-1.63.07-2.53.86-4.18.91-.94-7.92-1.97-15.75-2.91-23.67.16-.57.85.14.91.18,2.14,1.5,4.51,3.74,6.74,5.46,2.64,2.05,5.26,4.21,7.83,6.01.04-4.62-1.02-8.6-1.46-13.29,1.23-.47,2.75-.65,4.01-1.09h.36c.94,7.98,1.8,16.04,2.91,23.85Z"/>
    <path class="cls-1" d="M121.21,17.46c5.64.66,9.98,6.33,9.47,12.38-.46,5.45-4.3,10.26-10.38,10.92-2.15.23-4.49.09-7.1.18.04-3.43-.1-6.7-.36-9.83-.43-.61-1.37.41-1.82-.18.13-1.52-.31-2.48-.18-4.01.86.13,1.25-.2,2-.18-.26-2.9-.41-5.91-.36-9.1,3.08.09,5.43-.57,8.74-.18ZM121.39,26.39c-.13,1.65.21,2.83.18,4.37-1.15.36-3.08-.05-4.19.36-.08,1.84.32,3.2.18,5.1,11.55,2.49,10.7-17.22-.55-14.38.02,1.68.1,3.3.36,4.73,1.23-.17,2.56-.23,4.01-.18Z"/>
    <path class="cls-1" d="M122.48,238.48h-4.55c-.58-2.09-1.37-3.97-1.82-6.19-2.78-.62-5.93-.87-8.92-1.28-1.71,1.33-2.35,3.72-3.82,5.28-1.65-.18-2.77-.87-4.37-1.09,4.77-7.42,9.92-14.47,14.75-21.85,3.06,8.22,5.96,16.61,8.74,25.12ZM109.56,227.37c1.76,0,2.96.56,4.73.55-.43-2.24-.82-4.52-1.82-6.19-.77,1.97-2.53,3.89-2.91,5.64Z"/>
    <path class="cls-1" d="M111.38,40.95c-1.39.55-2.75,1.13-4.01,1.82-1.63-1.4-2.88-3.19-4.37-4.73-3.34.43-6.02,1.51-8.92,2.37-.28,2.15-.72,4.13-.91,6.37-1.82.23-2.61.5-4.73.55,1.81-8.38,3.2-17.19,4.73-25.85,6.17,6.39,12.29,12.83,18.2,19.48ZM99.54,34.76c-.03-.97-1.15-1.72-1.82-2.55-.73-.91-1.24-2.04-2.18-2.55-.25,1.94-.66,4.66-.55,6.37,1.47-.47,2.97-.91,4.55-1.27Z"/>
    <path class="cls-1" d="M98.81,230.47c-.77,1.23-1.49,2.51-2.37,3.64-3.69-1.29-7.48-2.47-11.1-3.82,2.4-7.43,5.12-14.54,7.46-22.03,1.5.26,2.97.55,4.37.91-2.05,6.2-4.43,12.07-6.19,18.57,2.38,1.14,5.16,1.88,7.83,2.73Z"/>
    <path class="cls-1" d="M88.26,209.17c-1.29.53-2.6,1.04-4.01,1.46-.18-1.6-1.79-4.56-4.37-4.37-1.1.08-2.25.9-2.37,2.37-.14,1.83,1.27,2.62,2.37,3.82.82.9,2.09,2.2,2.55,3.46,1.46,3.98-1.52,8.8-5.28,9.47-3.49.62-6.66-1.09-8.37-3.09-1.09-1.27-1.4-2.32-2-4.73,1.3-.36,3.12-1.1,4.19-1.09.08,2.27,1.96,5.22,5.1,4.55.9-.19,1.88-1.08,2-2.18.37-3.39-5.15-5.23-5.28-9.65-.11-3.71,3.04-6.93,6.55-7.1,4.5-.21,7.8,2.87,8.92,7.1Z"/>
    <path class="cls-1" d="M73.51,28.75c4.5,6.67,8.67,13.66,12.93,20.57-6.26-1.51-12.68-2.86-18.93-4.37-.06,1.11.89,2,1.46,2.91,1.66,2.69,3.39,5.77,5.28,8.37-.88,1.18-2.26,1.87-3.28,2.91-4.43-6.67-8.51-13.7-12.93-20.39,6.18.86,12.64,3.02,19.12,4.19-1.92-4.27-4.8-7.58-6.92-11.65,1.27-.67,2.2-1.68,3.28-2.55Z"/>
    <path class="cls-1" d="M76.6,191.33c1.41.83,2.46,2.03,3.82,2.91-1.73.7-4.54.32-6.37.91-1.08-.49-1.69-1.46-2.73-2,1.69-.67,3.41-1.32,5.28-1.82Z"/>
    <path class="cls-1" d="M70.41,194.78c1.43.57,2.41,1.59,3.82,2.18-4.8,6.31-10.04,12.17-14.75,18.57-1.47-.53-2.37-1.64-3.64-2.37,4.55-6.43,9.92-12.04,14.56-18.39Z"/>
    <path class="cls-1" d="M63.68,62.98c.06,6.03-7.45,11.26-13.11,7.46-1.05-.71-2.17-1.89-3.28-2.91-2.92-2.69-6.69-6.36-9.29-9.1.83-1.05,1.71-2.06,2.37-3.28,3.23,2.66,6.98,6.34,10.38,9.47,1.53,1.41,3.07,3.5,5.83,2.55,1.3-.45,2.68-2.4,2.73-3.46.13-2.46-2.63-4.39-4.19-5.83-2.77-2.56-6.04-5.56-8.92-8.01.75-1.32,1.76-2.36,2.55-3.64.15-.03.17.07.18.18,3.12,2.81,6.78,5.97,10.01,9.1,1.99,1.93,4.69,3.76,4.73,7.47Z"/>
    <path class="cls-1" d="M50.39,80.09c.1,4.5-4.61,8.13-5.64,11.83-6.74-3.88-13.43-7.81-20.21-11.65,2.28-3.08,4.19-11.26,10.38-10.56,2.2.25,5.25,2.13,4.92,5.64,1.47.02,2.16-1.09,3.46-1.27,3.74-.52,7.02,2.54,7.1,6.01ZM43.11,85.73c1.04-1.57,2.38-2.84,2.18-5.64-.77-.97-2.36-2.28-3.46-1.82-1.61.67-3.2,3.48-3.46,4.73,1.5.99,3.06,1.91,4.73,2.73ZM34.91,81c.8-1.32,1.91-2.34,1.64-4.73-.36-.61-1-.94-1.46-1.46-3.18-.39-3.63,1.95-4.55,3.82,1.6.64,2.76,1.73,4.37,2.37Z"/>
    <path class="cls-1" d="M48.39,188.59c6.59-1.35,5.79,8.9-.36,7.46-.74-.17-2.52-1.51-2.73-3.1-.35-2.67,1.1-3.96,3.09-4.37Z"/>
    <path class="cls-1" d="M42.56,162.01c2.1,3.24,3.7,6.98,5.28,10.74-6.77,3.49-13.9,6.61-20.57,10.19-1.05-1.07-1.8-2.45-2.55-3.82,5.98-2.7,11.84-5.52,17.48-8.56-.92-2.78-2.44-4.96-3.46-7.65,1.31-.26,2.76-.39,3.82-.91Z"/>
    <path class="cls-1" d="M42.56,44.41c-.44,2.17.53,4.6.18,6.19-.28,1.3-1.56,1.86-2.37,2.55-.33-1.8-.78-3.47-1.27-5.1.75-1.56,2.29-2.32,3.1-3.82.21-.03.32.04.36.18Z"/>
    <path class="cls-1" d="M41.47,156.73c.17,1.47.11,3.16.36,4.55-8.39-2.04-16.93-3.95-25.31-6.01-.68,0,.32-.88.55-1.09,1.14-1.05,2.55-2.01,3.82-3.1,4.8-4.09,10.45-8.66,15.11-12.93h.55c.37,1.45,1,2.64,1.46,4.01-1.28,1.81-3.53,2.66-4.92,4.37.43,3.1,1.27,5.77,1.82,8.74,2.05.62,4.53.81,6.56,1.46ZM30.55,154.37c-.05-1.84-.58-3.18-.91-4.73-.04-.14-.15-.21-.36-.18-.8.61-1.51,1.38-2.37,2-.79.58-2.1.86-2.37,2,2.1.21,4.01.6,6.01.91Z"/>
    <path class="cls-1" d="M27.63,92.11c7.33-.19,13.26,5.93,12.2,13.65-.33,2.43-1.6,4.73-2,7.28-7.5-2.09-14.87-4.31-22.39-6.37,1.22-3.82,1.63-8.12,4.01-10.74,1.79-1.98,4.71-3.74,8.19-3.82ZM34.91,107.58c.45-1.74,1-2.95.91-4.37-.38-5.81-9.58-8.48-13.29-4.19-.94,1.09-1.34,2.6-1.64,4.55,4.73,1.28,9.32,2.7,14.02,4.01Z"/>
    <path class="cls-1" d="M36.73,132.52c0,1.57.35,2.8.36,4.37-7.94-.13-16-.14-23.85-.36-.73-.22.38-.75.36-.73,3.91-4.35,9.33-8.49,13.29-12.93-3.89-.73-9.02-.2-13.29-.55-.32-1.32-.36-2.92-.55-4.37,8.11.08,15.93.45,24.21.36-4.37,4.86-9.49,8.96-13.84,13.84,4.91.48,7.73.29,13.29.36Z"/>
  </g>
</svg>